<svg width="57" height="57" viewBox="0 0 57 57" fill="none" xmlns="http://www.w3.org/2000/svg">
<path d="M0.5 2.33914C0.5 1.32341 1.32341 0.5 2.33914 0.5H54.6609C55.6766 0.5 56.5 1.32341 56.5 2.33914V54.6609C56.5 55.6766 55.6766 56.5 54.6609 56.5H2.33914C1.32341 56.5 0.5 55.6766 0.5 54.6609V2.33914Z" fill="white"/>
<path d="M0.5 2.33914C0.5 1.32341 1.32341 0.5 2.33914 0.5H54.6609C55.6766 0.5 56.5 1.32341 56.5 2.33914V54.6609C56.5 55.6766 55.6766 56.5 54.6609 56.5H2.33914C1.32341 56.5 0.5 55.6766 0.5 54.6609V2.33914Z" stroke="#F0F0F0"/>
</svg>
